<?xml version="1.0" encoding="UTF-8"?>
<!DOCTYPE svg PUBLIC "-//W3C//DTD SVG 1.1//EN" "http://www.w3.org/Graphics/SVG/1.1/DTD/svg11.dtd">
<!-- Creator: CorelDRAW 2018 (64-Bit Evaluation Version) -->
<svg xmlns="http://www.w3.org/2000/svg" xml:space="preserve" width="3.63604in" height="3.50506in" version="1.1" style="shape-rendering:geometricPrecision; text-rendering:geometricPrecision; image-rendering:optimizeQuality; fill-rule:evenodd; clip-rule:evenodd"
viewBox="0 0 3279.57 3161.42"
 xmlns:xlink="http://www.w3.org/1999/xlink">
 <defs>
  <style type="text/css">
   <![CDATA[
    .fil0 {fill:#fff;fill-rule:nonzero}
   ]]>
  </style>
 </defs>
 <g id="Layer_x0020_1">
  <metadata id="CorelCorpID_0Corel-Layer"/>
  <path class="fil0" d="M2354.77 2623.65l0 317.09c-136.48,76.73 -267.53,133.09 -392.46,167.71 -125.61,35.31 -256.66,52.96 -393.14,52.96 -449.5,0 -823.62,-151.42 -1121.7,-453.57 -298.08,-302.15 -447.46,-677.64 -447.46,-1127.14 0,-449.5 149.38,-824.98 447.46,-1127.14 298.08,-302.16 672.21,-453.57 1121.7,-453.57 139.2,0 271.6,16.97 397.9,51.6 125.61,34.63 255.3,89.63 387.71,164.99l0 321.17c-131.05,-101.85 -260.06,-174.5 -387.03,-218.64 -126.97,-44.13 -270.92,-66.54 -432.52,-66.54 -323.89,0 -602.28,109.32 -833.81,327.28 -232.22,217.96 -371.41,502.46 -416.23,854.18l1462.56 0 0 264.81 -1462.56 0c35.99,359.19 170.43,650.48 404,873.87 233.58,224.07 515.36,336.1 846.04,336.1 161.6,0 305.55,-22.41 432.52,-66.54 126.97,-44.13 255.98,-116.79 387.03,-218.64zm924.8 0l0 313.02c-115.43,75.37 -241.04,131.73 -376.85,169.07 -135.8,37.35 -283.14,55.68 -442.71,55.68 -205.06,0 -401.29,-39.38 -588.69,-117.46 -186.73,-78.09 -352.4,-191.48 -497.03,-340.18 -147.34,-148.02 -258.7,-317.77 -335.43,-508.57 -76.05,-190.8 -114.07,-395.86 -114.07,-614.49 0,-449.5 149.38,-824.98 447.46,-1127.14 298.08,-302.16 672.21,-453.57 1121.7,-453.57 139.2,0 271.6,16.97 397.9,51.6 125.61,34.63 255.3,89.63 387.71,164.99l0 321.17c-131.05,-101.85 -260.06,-174.5 -387.03,-218.64 -126.97,-44.13 -270.92,-66.54 -432.52,-66.54 -351.72,0 -649.12,127.65 -890.85,383.63 -242.4,255.98 -363.26,570.36 -363.26,944.49 0,373.45 120.86,688.5 363.26,944.49 241.73,255.98 539.13,383.63 890.85,383.63 161.6,0 309.62,-23.76 444.74,-70.62 134.44,-46.85 259.38,-118.15 374.81,-214.56z"/>
 </g>
</svg>
